<mxfile host="app.diagrams.net" modified="2021-10-27T15:16:48.513Z" agent="5.0 (Windows NT 10.0; WOW64) AppleWebKit/537.36 (KHTML, like Gecko) Chrome/80.0.3987.132 YaBrowser/20.3.1.253 Yowser/2.5 Safari/537.36" etag="BAI4sD3A3OS5ugI0pGFo" version="15.5.9" type="github">
  <diagram id="C5RBs43oDa-KdzZeNtuy" name="Page-1">
    <mxGraphModel dx="2947" dy="852" grid="1" gridSize="10" guides="1" tooltips="1" connect="1" arrows="1" fold="1" page="1" pageScale="1" pageWidth="827" pageHeight="1169" math="0" shadow="0">
      <root>
        <mxCell id="WIyWlLk6GJQsqaUBKTNV-0" />
        <mxCell id="WIyWlLk6GJQsqaUBKTNV-1" parent="WIyWlLk6GJQsqaUBKTNV-0" />
        <mxCell id="PLs2SsT15z17GsNhj8Ck-70" value="" style="rounded=0;whiteSpace=wrap;html=1;dashed=1;dashPattern=1 2;" vertex="1" parent="WIyWlLk6GJQsqaUBKTNV-1">
          <mxGeometry x="350" y="667" width="270" height="233" as="geometry" />
        </mxCell>
        <mxCell id="PLs2SsT15z17GsNhj8Ck-68" value="" style="rounded=0;whiteSpace=wrap;html=1;dashed=1;dashPattern=1 2;fillColor=#f8cecc;strokeColor=#b85450;" vertex="1" parent="WIyWlLk6GJQsqaUBKTNV-1">
          <mxGeometry x="-381" y="1027.5" width="821" height="92.5" as="geometry" />
        </mxCell>
        <mxCell id="PLs2SsT15z17GsNhj8Ck-17" value="" style="rounded=0;whiteSpace=wrap;html=1;dashed=1;dashPattern=1 2;fillColor=#fff2cc;strokeColor=#d6b656;" vertex="1" parent="WIyWlLk6GJQsqaUBKTNV-1">
          <mxGeometry x="496.95" y="351" width="120" height="120" as="geometry" />
        </mxCell>
        <mxCell id="PLs2SsT15z17GsNhj8Ck-16" value="" style="rounded=0;whiteSpace=wrap;html=1;dashed=1;dashPattern=1 2;fillColor=#fff2cc;strokeColor=#d6b656;" vertex="1" parent="WIyWlLk6GJQsqaUBKTNV-1">
          <mxGeometry x="350" y="355.82" width="120" height="120" as="geometry" />
        </mxCell>
        <mxCell id="PLs2SsT15z17GsNhj8Ck-2" value="" style="rounded=0;whiteSpace=wrap;html=1;dashed=1;dashPattern=1 2;fillColor=#e1d5e7;strokeColor=#9673a6;" vertex="1" parent="WIyWlLk6GJQsqaUBKTNV-1">
          <mxGeometry x="140" y="287.25" width="181" height="696.5" as="geometry" />
        </mxCell>
        <mxCell id="PLs2SsT15z17GsNhj8Ck-1" value="" style="rounded=0;whiteSpace=wrap;html=1;dashed=1;dashPattern=1 2;fillColor=#ffe6cc;strokeColor=#d79b00;" vertex="1" parent="WIyWlLk6GJQsqaUBKTNV-1">
          <mxGeometry x="-62" y="287.25" width="181" height="696.5" as="geometry" />
        </mxCell>
        <mxCell id="PLs2SsT15z17GsNhj8Ck-0" value="" style="rounded=0;whiteSpace=wrap;html=1;dashed=1;dashPattern=1 2;fillColor=#dae8fc;strokeColor=#6c8ebf;" vertex="1" parent="WIyWlLk6GJQsqaUBKTNV-1">
          <mxGeometry x="-261" y="287.25" width="181" height="696.5" as="geometry" />
        </mxCell>
        <mxCell id="5QetswFkg2Cd5uMD2sd_-123" value="" style="rounded=0;whiteSpace=wrap;html=1;fillColor=none;dashed=1;strokeWidth=1;perimeterSpacing=1;strokeColor=#000000;" parent="WIyWlLk6GJQsqaUBKTNV-1" vertex="1">
          <mxGeometry x="-240" y="360" width="550" height="320" as="geometry" />
        </mxCell>
        <mxCell id="5QetswFkg2Cd5uMD2sd_-127" value="" style="rounded=0;whiteSpace=wrap;html=1;fillColor=none;dashed=1;strokeWidth=1;perimeterSpacing=1;strokeColor=#000000;" parent="WIyWlLk6GJQsqaUBKTNV-1" vertex="1">
          <mxGeometry x="-540" y="557" width="119" height="110" as="geometry" />
        </mxCell>
        <mxCell id="5QetswFkg2Cd5uMD2sd_-2" value="" style="rounded=0;whiteSpace=wrap;html=1;fillColor=none;strokeWidth=2;perimeterSpacing=1;strokeColor=#00CC00;fontStyle=1" parent="WIyWlLk6GJQsqaUBKTNV-1" vertex="1">
          <mxGeometry x="-320" y="351" width="950" height="569" as="geometry" />
        </mxCell>
        <mxCell id="PLs2SsT15z17GsNhj8Ck-39" style="edgeStyle=orthogonalEdgeStyle;rounded=0;orthogonalLoop=1;jettySize=auto;html=1;endArrow=classic;endFill=1;strokeWidth=1;" edge="1" parent="WIyWlLk6GJQsqaUBKTNV-1" source="5QetswFkg2Cd5uMD2sd_-75">
          <mxGeometry relative="1" as="geometry">
            <mxPoint x="371" y="1050" as="targetPoint" />
            <Array as="points">
              <mxPoint x="680" y="510" />
              <mxPoint x="680" y="1050" />
            </Array>
          </mxGeometry>
        </mxCell>
        <mxCell id="5QetswFkg2Cd5uMD2sd_-75" value="" style="rounded=0;whiteSpace=wrap;html=1;fillColor=none;dashed=1;strokeWidth=1;perimeterSpacing=1;strokeColor=#000000;" parent="WIyWlLk6GJQsqaUBKTNV-1" vertex="1">
          <mxGeometry x="355.45" y="360" width="234.55" height="300" as="geometry" />
        </mxCell>
        <mxCell id="5QetswFkg2Cd5uMD2sd_-124" value="" style="rounded=0;whiteSpace=wrap;html=1;fillColor=none;dashed=1;strokeWidth=1;perimeterSpacing=1;strokeColor=#000000;" parent="WIyWlLk6GJQsqaUBKTNV-1" vertex="1">
          <mxGeometry x="-239" y="730" width="550" height="160" as="geometry" />
        </mxCell>
        <mxCell id="5QetswFkg2Cd5uMD2sd_-97" value="" style="rounded=0;whiteSpace=wrap;html=1;fillColor=none;dashed=1;strokeWidth=1;perimeterSpacing=1;strokeColor=#000000;" parent="WIyWlLk6GJQsqaUBKTNV-1" vertex="1">
          <mxGeometry x="-29.30000000000001" y="434.32" width="119" height="110" as="geometry" />
        </mxCell>
        <mxCell id="5QetswFkg2Cd5uMD2sd_-0" value="" style="rounded=0;whiteSpace=wrap;html=1;fillColor=none;dashed=1;strokeWidth=2;perimeterSpacing=1;strokeColor=#FF0000;" parent="WIyWlLk6GJQsqaUBKTNV-1" vertex="1">
          <mxGeometry x="-320" y="30" width="730" height="240" as="geometry" />
        </mxCell>
        <mxCell id="5QetswFkg2Cd5uMD2sd_-38" style="edgeStyle=orthogonalEdgeStyle;rounded=1;orthogonalLoop=1;jettySize=auto;html=1;startArrow=none;startFill=0;endArrow=classic;endFill=1;strokeWidth=1;" parent="WIyWlLk6GJQsqaUBKTNV-1" source="5QetswFkg2Cd5uMD2sd_-12" target="5QetswFkg2Cd5uMD2sd_-13" edge="1">
          <mxGeometry relative="1" as="geometry" />
        </mxCell>
        <mxCell id="5QetswFkg2Cd5uMD2sd_-3" value="" style="rounded=0;whiteSpace=wrap;html=1;fillColor=none;dashed=1;strokeWidth=1;perimeterSpacing=1;strokeColor=#000000;" parent="WIyWlLk6GJQsqaUBKTNV-1" vertex="1">
          <mxGeometry x="-220.5" y="120" width="119" height="110" as="geometry" />
        </mxCell>
        <mxCell id="5QetswFkg2Cd5uMD2sd_-35" style="edgeStyle=orthogonalEdgeStyle;rounded=1;orthogonalLoop=1;jettySize=auto;html=1;strokeWidth=1;" parent="WIyWlLk6GJQsqaUBKTNV-1" target="5QetswFkg2Cd5uMD2sd_-20" edge="1">
          <mxGeometry relative="1" as="geometry">
            <mxPoint x="10" y="148" as="sourcePoint" />
            <Array as="points">
              <mxPoint x="10" y="60" />
              <mxPoint x="325" y="60" />
            </Array>
          </mxGeometry>
        </mxCell>
        <mxCell id="5QetswFkg2Cd5uMD2sd_-5" value="" style="rounded=0;whiteSpace=wrap;html=1;fillColor=none;dashed=1;strokeWidth=1;perimeterSpacing=1;strokeColor=#000000;" parent="WIyWlLk6GJQsqaUBKTNV-1" vertex="1">
          <mxGeometry x="-40.5" y="120" width="119" height="110" as="geometry" />
        </mxCell>
        <mxCell id="5QetswFkg2Cd5uMD2sd_-6" value="" style="rounded=0;whiteSpace=wrap;html=1;fillColor=none;dashed=1;strokeWidth=1;perimeterSpacing=1;strokeColor=#000000;" parent="WIyWlLk6GJQsqaUBKTNV-1" vertex="1">
          <mxGeometry x="140.5" y="120" width="119" height="110" as="geometry" />
        </mxCell>
        <mxCell id="5QetswFkg2Cd5uMD2sd_-7" value="" style="rounded=0;whiteSpace=wrap;html=1;fillColor=none;dashed=1;strokeWidth=1;perimeterSpacing=1;strokeColor=#000000;" parent="WIyWlLk6GJQsqaUBKTNV-1" vertex="1">
          <mxGeometry x="271" y="120" width="119" height="110" as="geometry" />
        </mxCell>
        <mxCell id="5QetswFkg2Cd5uMD2sd_-8" value="Процессинг ДПК (ООО &quot;Радуга карт&quot;)" style="text;html=1;strokeColor=none;fillColor=none;align=center;verticalAlign=middle;whiteSpace=wrap;rounded=0;dashed=1;" parent="WIyWlLk6GJQsqaUBKTNV-1" vertex="1">
          <mxGeometry x="-80" y="40" width="320" height="20" as="geometry" />
        </mxCell>
        <mxCell id="5QetswFkg2Cd5uMD2sd_-36" style="edgeStyle=orthogonalEdgeStyle;rounded=1;orthogonalLoop=1;jettySize=auto;html=1;strokeWidth=1;startArrow=classic;startFill=1;endArrow=none;endFill=0;" parent="WIyWlLk6GJQsqaUBKTNV-1" source="5QetswFkg2Cd5uMD2sd_-11" edge="1">
          <mxGeometry relative="1" as="geometry">
            <mxPoint x="42" y="178" as="targetPoint" />
          </mxGeometry>
        </mxCell>
        <mxCell id="5QetswFkg2Cd5uMD2sd_-12" value="" style="pointerEvents=1;shadow=0;dashed=0;html=1;strokeColor=none;fillColor=#505050;labelPosition=center;verticalLabelPosition=bottom;verticalAlign=top;outlineConnect=0;align=center;shape=mxgraph.office.servers.web_server;" parent="WIyWlLk6GJQsqaUBKTNV-1" vertex="1">
          <mxGeometry x="-185" y="150" width="48" height="57" as="geometry" />
        </mxCell>
        <mxCell id="5QetswFkg2Cd5uMD2sd_-39" style="edgeStyle=orthogonalEdgeStyle;rounded=1;orthogonalLoop=1;jettySize=auto;html=1;startArrow=none;startFill=0;endArrow=classic;endFill=1;strokeWidth=1;" parent="WIyWlLk6GJQsqaUBKTNV-1" source="5QetswFkg2Cd5uMD2sd_-14" target="5QetswFkg2Cd5uMD2sd_-12" edge="1">
          <mxGeometry relative="1" as="geometry">
            <Array as="points">
              <mxPoint x="-407" y="179" />
            </Array>
          </mxGeometry>
        </mxCell>
        <mxCell id="5QetswFkg2Cd5uMD2sd_-131" value="HTTP/80" style="text;html=1;align=center;verticalAlign=middle;resizable=0;points=[];labelBackgroundColor=#ffffff;fontSize=9;" parent="5QetswFkg2Cd5uMD2sd_-39" vertex="1" connectable="0">
          <mxGeometry x="-0.2569" y="1" relative="1" as="geometry">
            <mxPoint x="1.07" y="109.54" as="offset" />
          </mxGeometry>
        </mxCell>
        <mxCell id="5QetswFkg2Cd5uMD2sd_-89" style="edgeStyle=orthogonalEdgeStyle;rounded=1;orthogonalLoop=1;jettySize=auto;html=1;startArrow=none;startFill=0;endArrow=classic;endFill=1;strokeWidth=1;" parent="WIyWlLk6GJQsqaUBKTNV-1" source="5QetswFkg2Cd5uMD2sd_-14" target="5QetswFkg2Cd5uMD2sd_-72" edge="1">
          <mxGeometry relative="1" as="geometry">
            <Array as="points">
              <mxPoint x="-408" y="530" />
              <mxPoint x="-591" y="530" />
            </Array>
          </mxGeometry>
        </mxCell>
        <mxCell id="5QetswFkg2Cd5uMD2sd_-133" value="POP3/110" style="text;html=1;align=center;verticalAlign=middle;resizable=0;points=[];labelBackgroundColor=#ffffff;fontSize=9;" parent="5QetswFkg2Cd5uMD2sd_-89" vertex="1" connectable="0">
          <mxGeometry x="-0.0152" y="3" relative="1" as="geometry">
            <mxPoint x="180.5" y="-28.11" as="offset" />
          </mxGeometry>
        </mxCell>
        <mxCell id="5QetswFkg2Cd5uMD2sd_-90" style="edgeStyle=orthogonalEdgeStyle;rounded=1;orthogonalLoop=1;jettySize=auto;html=1;startArrow=none;startFill=0;endArrow=classic;endFill=1;strokeWidth=1;" parent="WIyWlLk6GJQsqaUBKTNV-1" source="5QetswFkg2Cd5uMD2sd_-14" target="5QetswFkg2Cd5uMD2sd_-47" edge="1">
          <mxGeometry relative="1" as="geometry" />
        </mxCell>
        <mxCell id="5QetswFkg2Cd5uMD2sd_-132" value="HTTP/80" style="text;html=1;align=center;verticalAlign=middle;resizable=0;points=[];labelBackgroundColor=#ffffff;fontSize=9;" parent="5QetswFkg2Cd5uMD2sd_-90" vertex="1" connectable="0">
          <mxGeometry x="-0.7446" y="3" relative="1" as="geometry">
            <mxPoint x="26.43" y="-0.5" as="offset" />
          </mxGeometry>
        </mxCell>
        <mxCell id="5QetswFkg2Cd5uMD2sd_-14" value="" style="pointerEvents=1;shadow=0;dashed=0;html=1;strokeColor=none;fillColor=#505050;labelPosition=center;verticalLabelPosition=bottom;verticalAlign=top;outlineConnect=0;align=center;shape=mxgraph.office.devices.cell_phone_iphone_standalone;" parent="WIyWlLk6GJQsqaUBKTNV-1" vertex="1">
          <mxGeometry x="-420" y="423.32" width="25" height="42" as="geometry" />
        </mxCell>
        <mxCell id="5QetswFkg2Cd5uMD2sd_-22" value="" style="group" parent="WIyWlLk6GJQsqaUBKTNV-1" vertex="1" connectable="0">
          <mxGeometry x="311" y="148" width="50" height="59" as="geometry" />
        </mxCell>
        <mxCell id="5QetswFkg2Cd5uMD2sd_-20" value="" style="pointerEvents=1;shadow=0;dashed=0;html=1;strokeColor=none;fillColor=#505050;labelPosition=center;verticalLabelPosition=bottom;verticalAlign=top;outlineConnect=0;align=center;shape=mxgraph.office.servers.server_generic;" parent="5QetswFkg2Cd5uMD2sd_-22" vertex="1">
          <mxGeometry width="27" height="52" as="geometry" />
        </mxCell>
        <mxCell id="5QetswFkg2Cd5uMD2sd_-21" value="" style="pointerEvents=1;shadow=0;dashed=0;html=1;strokeColor=none;fillColor=#FF0000;labelPosition=center;verticalLabelPosition=bottom;verticalAlign=top;outlineConnect=0;align=center;shape=mxgraph.office.security.management_role;" parent="5QetswFkg2Cd5uMD2sd_-22" vertex="1">
          <mxGeometry x="20" y="29" width="30" height="30" as="geometry" />
        </mxCell>
        <mxCell id="5QetswFkg2Cd5uMD2sd_-23" value="&lt;font style=&quot;font-size: 9px&quot;&gt;Граница сети&lt;br&gt;ООО &quot;Радуга карт&quot;&lt;/font&gt;" style="text;html=1;strokeColor=none;fillColor=none;align=center;verticalAlign=middle;whiteSpace=wrap;rounded=0;dashed=1;" parent="WIyWlLk6GJQsqaUBKTNV-1" vertex="1">
          <mxGeometry x="-350" y="260" width="150" height="40" as="geometry" />
        </mxCell>
        <mxCell id="5QetswFkg2Cd5uMD2sd_-24" value="&lt;font style=&quot;font-size: 9px&quot;&gt;Граница сети Банка&lt;br&gt;&lt;/font&gt;" style="text;html=1;strokeColor=none;fillColor=none;align=center;verticalAlign=middle;whiteSpace=wrap;rounded=0;dashed=1;" parent="WIyWlLk6GJQsqaUBKTNV-1" vertex="1">
          <mxGeometry x="-350" y="320" width="161" height="40" as="geometry" />
        </mxCell>
        <mxCell id="5QetswFkg2Cd5uMD2sd_-25" value="&lt;font style=&quot;font-size: 10px&quot;&gt;&lt;b&gt;DMZ&lt;/b&gt;&lt;/font&gt;" style="text;html=1;strokeColor=none;fillColor=none;align=center;verticalAlign=middle;whiteSpace=wrap;rounded=0;dashed=1;" parent="WIyWlLk6GJQsqaUBKTNV-1" vertex="1">
          <mxGeometry x="-221.5" y="120" width="41.5" height="20" as="geometry" />
        </mxCell>
        <mxCell id="5QetswFkg2Cd5uMD2sd_-28" value="&lt;font style=&quot;font-size: 10px&quot;&gt;&lt;b&gt;APP&lt;/b&gt;&lt;/font&gt;" style="text;html=1;strokeColor=none;fillColor=none;align=center;verticalAlign=middle;whiteSpace=wrap;rounded=0;dashed=1;" parent="WIyWlLk6GJQsqaUBKTNV-1" vertex="1">
          <mxGeometry x="-41.5" y="120" width="41.5" height="20" as="geometry" />
        </mxCell>
        <mxCell id="5QetswFkg2Cd5uMD2sd_-29" value="&lt;font style=&quot;font-size: 10px&quot;&gt;&lt;b&gt;DB&lt;/b&gt;&lt;/font&gt;" style="text;html=1;strokeColor=none;fillColor=none;align=center;verticalAlign=middle;whiteSpace=wrap;rounded=0;dashed=1;" parent="WIyWlLk6GJQsqaUBKTNV-1" vertex="1">
          <mxGeometry x="140" y="120" width="30" height="20" as="geometry" />
        </mxCell>
        <mxCell id="5QetswFkg2Cd5uMD2sd_-30" value="&lt;font style=&quot;font-size: 10px&quot;&gt;&lt;b&gt;HSM&lt;/b&gt;&lt;/font&gt;" style="text;html=1;strokeColor=none;fillColor=none;align=center;verticalAlign=middle;whiteSpace=wrap;rounded=0;dashed=1;" parent="WIyWlLk6GJQsqaUBKTNV-1" vertex="1">
          <mxGeometry x="270.5" y="120" width="39.5" height="20" as="geometry" />
        </mxCell>
        <mxCell id="5QetswFkg2Cd5uMD2sd_-31" value="&lt;span style=&quot;font-size: 10px&quot;&gt;прокси-сервер&lt;/span&gt;" style="text;html=1;strokeColor=none;fillColor=none;align=center;verticalAlign=middle;whiteSpace=wrap;rounded=0;dashed=1;" parent="WIyWlLk6GJQsqaUBKTNV-1" vertex="1">
          <mxGeometry x="-220.5" y="210" width="120" height="20" as="geometry" />
        </mxCell>
        <mxCell id="5QetswFkg2Cd5uMD2sd_-32" value="&lt;span style=&quot;font-size: 10px&quot;&gt;java-приложение&lt;/span&gt;" style="text;html=1;strokeColor=none;fillColor=none;align=center;verticalAlign=middle;whiteSpace=wrap;rounded=0;dashed=1;" parent="WIyWlLk6GJQsqaUBKTNV-1" vertex="1">
          <mxGeometry x="-40.5" y="210" width="120" height="20" as="geometry" />
        </mxCell>
        <mxCell id="5QetswFkg2Cd5uMD2sd_-33" value="&lt;span style=&quot;font-size: 10px&quot;&gt;БД с ДПК, токенами карт&lt;/span&gt;" style="text;html=1;strokeColor=none;fillColor=none;align=center;verticalAlign=middle;whiteSpace=wrap;rounded=0;dashed=1;" parent="WIyWlLk6GJQsqaUBKTNV-1" vertex="1">
          <mxGeometry x="140.5" y="210" width="120" height="20" as="geometry" />
        </mxCell>
        <mxCell id="5QetswFkg2Cd5uMD2sd_-34" value="&lt;span style=&quot;font-size: 10px&quot;&gt;HSM с криптоключами&lt;/span&gt;" style="text;html=1;strokeColor=none;fillColor=none;align=center;verticalAlign=middle;whiteSpace=wrap;rounded=0;dashed=1;" parent="WIyWlLk6GJQsqaUBKTNV-1" vertex="1">
          <mxGeometry x="270" y="210" width="120" height="20" as="geometry" />
        </mxCell>
        <mxCell id="5QetswFkg2Cd5uMD2sd_-13" value="" style="pointerEvents=1;shadow=0;dashed=0;html=1;strokeColor=none;fillColor=#505050;labelPosition=center;verticalLabelPosition=bottom;verticalAlign=top;outlineConnect=0;align=center;shape=mxgraph.office.servers.application_server;" parent="WIyWlLk6GJQsqaUBKTNV-1" vertex="1">
          <mxGeometry x="-4" y="150" width="46" height="56" as="geometry" />
        </mxCell>
        <mxCell id="5QetswFkg2Cd5uMD2sd_-41" style="edgeStyle=orthogonalEdgeStyle;rounded=1;orthogonalLoop=1;jettySize=auto;html=1;startArrow=none;startFill=0;endArrow=classic;endFill=1;strokeWidth=1;dashed=1;" parent="WIyWlLk6GJQsqaUBKTNV-1" source="5QetswFkg2Cd5uMD2sd_-135" target="5QetswFkg2Cd5uMD2sd_-14" edge="1">
          <mxGeometry relative="1" as="geometry">
            <mxPoint x="-470.0000000000002" y="444.3199999999997" as="sourcePoint" />
          </mxGeometry>
        </mxCell>
        <mxCell id="5QetswFkg2Cd5uMD2sd_-42" value="" style="rounded=0;whiteSpace=wrap;html=1;fillColor=none;dashed=1;strokeWidth=1;perimeterSpacing=1;strokeColor=#000000;" parent="WIyWlLk6GJQsqaUBKTNV-1" vertex="1">
          <mxGeometry x="155.25" y="385.82" width="119" height="110" as="geometry" />
        </mxCell>
        <mxCell id="5QetswFkg2Cd5uMD2sd_-91" style="edgeStyle=orthogonalEdgeStyle;rounded=1;orthogonalLoop=1;jettySize=auto;html=1;startArrow=classic;startFill=1;endArrow=none;endFill=0;strokeWidth=1;" parent="WIyWlLk6GJQsqaUBKTNV-1" source="5QetswFkg2Cd5uMD2sd_-43" target="5QetswFkg2Cd5uMD2sd_-47" edge="1">
          <mxGeometry relative="1" as="geometry">
            <Array as="points">
              <mxPoint x="120" y="420" />
              <mxPoint x="120" y="420" />
            </Array>
          </mxGeometry>
        </mxCell>
        <mxCell id="5QetswFkg2Cd5uMD2sd_-143" value="SQLNet/1525" style="text;html=1;align=center;verticalAlign=middle;resizable=0;points=[];labelBackgroundColor=#ffffff;fontSize=9;" parent="5QetswFkg2Cd5uMD2sd_-91" vertex="1" connectable="0">
          <mxGeometry x="-0.4036" y="-1" relative="1" as="geometry">
            <mxPoint as="offset" />
          </mxGeometry>
        </mxCell>
        <mxCell id="5QetswFkg2Cd5uMD2sd_-92" style="edgeStyle=orthogonalEdgeStyle;rounded=1;orthogonalLoop=1;jettySize=auto;html=1;startArrow=none;startFill=0;endArrow=classic;endFill=1;strokeWidth=1;" parent="WIyWlLk6GJQsqaUBKTNV-1" source="5QetswFkg2Cd5uMD2sd_-43" target="5QetswFkg2Cd5uMD2sd_-12" edge="1">
          <mxGeometry relative="1" as="geometry">
            <Array as="points">
              <mxPoint x="-60" y="430" />
              <mxPoint x="-60" y="200" />
            </Array>
          </mxGeometry>
        </mxCell>
        <mxCell id="5QetswFkg2Cd5uMD2sd_-150" value="RSync/873&lt;br&gt;Передача токенов карт" style="text;html=1;align=center;verticalAlign=middle;resizable=0;points=[];labelBackgroundColor=#ffffff;fontSize=9;" parent="5QetswFkg2Cd5uMD2sd_-92" vertex="1" connectable="0">
          <mxGeometry x="0.4068" y="-1" relative="1" as="geometry">
            <mxPoint as="offset" />
          </mxGeometry>
        </mxCell>
        <mxCell id="5QetswFkg2Cd5uMD2sd_-94" style="edgeStyle=orthogonalEdgeStyle;rounded=1;orthogonalLoop=1;jettySize=auto;html=1;startArrow=none;startFill=0;endArrow=classic;endFill=1;strokeWidth=1;" parent="WIyWlLk6GJQsqaUBKTNV-1" source="5QetswFkg2Cd5uMD2sd_-43" target="5QetswFkg2Cd5uMD2sd_-66" edge="1">
          <mxGeometry relative="1" as="geometry">
            <Array as="points">
              <mxPoint x="215" y="720" />
              <mxPoint x="-143" y="720" />
            </Array>
          </mxGeometry>
        </mxCell>
        <mxCell id="5QetswFkg2Cd5uMD2sd_-136" value="SMTP/25" style="text;html=1;align=center;verticalAlign=middle;resizable=0;points=[];labelBackgroundColor=#ffffff;fontSize=9;" parent="5QetswFkg2Cd5uMD2sd_-94" vertex="1" connectable="0">
          <mxGeometry x="0.636" y="3" relative="1" as="geometry">
            <mxPoint x="301.77" y="-203" as="offset" />
          </mxGeometry>
        </mxCell>
        <mxCell id="5QetswFkg2Cd5uMD2sd_-43" value="" style="shadow=0;dashed=0;html=1;strokeColor=none;fillColor=#505050;labelPosition=center;verticalLabelPosition=bottom;verticalAlign=top;outlineConnect=0;align=center;shape=mxgraph.office.databases.database_mini_3;" parent="WIyWlLk6GJQsqaUBKTNV-1" vertex="1">
          <mxGeometry x="197.25" y="415.82" width="35" height="57" as="geometry" />
        </mxCell>
        <mxCell id="5QetswFkg2Cd5uMD2sd_-44" value="&lt;font style=&quot;font-size: 10px&quot;&gt;&lt;b&gt;DB&lt;/b&gt; 192.168.13.0/24&lt;/font&gt;" style="text;html=1;strokeColor=none;fillColor=none;align=center;verticalAlign=middle;whiteSpace=wrap;rounded=0;dashed=1;" parent="WIyWlLk6GJQsqaUBKTNV-1" vertex="1">
          <mxGeometry x="154.75" y="385.82" width="120" height="20" as="geometry" />
        </mxCell>
        <mxCell id="5QetswFkg2Cd5uMD2sd_-45" value="&lt;span style=&quot;font-size: 10px&quot;&gt;БД с ДПК, токенами карт&lt;/span&gt;" style="text;html=1;strokeColor=none;fillColor=none;align=center;verticalAlign=middle;whiteSpace=wrap;rounded=0;dashed=1;" parent="WIyWlLk6GJQsqaUBKTNV-1" vertex="1">
          <mxGeometry x="155.25" y="475.82" width="120" height="20" as="geometry" />
        </mxCell>
        <mxCell id="5QetswFkg2Cd5uMD2sd_-46" value="" style="rounded=0;whiteSpace=wrap;html=1;fillColor=none;dashed=1;strokeWidth=1;perimeterSpacing=1;strokeColor=#000000;" parent="WIyWlLk6GJQsqaUBKTNV-1" vertex="1">
          <mxGeometry x="-209" y="385.82" width="119" height="110" as="geometry" />
        </mxCell>
        <mxCell id="5QetswFkg2Cd5uMD2sd_-47" value="" style="pointerEvents=1;shadow=0;dashed=0;html=1;strokeColor=none;fillColor=#505050;labelPosition=center;verticalLabelPosition=bottom;verticalAlign=top;outlineConnect=0;align=center;shape=mxgraph.office.servers.web_server;" parent="WIyWlLk6GJQsqaUBKTNV-1" vertex="1">
          <mxGeometry x="-173.5" y="415.82" width="48" height="57" as="geometry" />
        </mxCell>
        <mxCell id="5QetswFkg2Cd5uMD2sd_-48" value="&lt;font style=&quot;font-size: 10px&quot;&gt;&lt;b&gt;DMZ&lt;/b&gt; 192.168.11.0/24&lt;/font&gt;" style="text;html=1;strokeColor=none;fillColor=none;align=center;verticalAlign=middle;whiteSpace=wrap;rounded=0;dashed=1;" parent="WIyWlLk6GJQsqaUBKTNV-1" vertex="1">
          <mxGeometry x="-210" y="385.82" width="120" height="20" as="geometry" />
        </mxCell>
        <mxCell id="5QetswFkg2Cd5uMD2sd_-49" value="&lt;span style=&quot;font-size: 10px&quot;&gt;веб-сервер&lt;/span&gt;" style="text;html=1;strokeColor=none;fillColor=none;align=center;verticalAlign=middle;whiteSpace=wrap;rounded=0;dashed=1;" parent="WIyWlLk6GJQsqaUBKTNV-1" vertex="1">
          <mxGeometry x="-209" y="475.82" width="120" height="20" as="geometry" />
        </mxCell>
        <mxCell id="5QetswFkg2Cd5uMD2sd_-50" value="" style="rounded=0;whiteSpace=wrap;html=1;fillColor=none;dashed=1;strokeWidth=1;perimeterSpacing=1;strokeColor=#000000;" parent="WIyWlLk6GJQsqaUBKTNV-1" vertex="1">
          <mxGeometry x="-207" y="755" width="119" height="110" as="geometry" />
        </mxCell>
        <mxCell id="5QetswFkg2Cd5uMD2sd_-52" value="&lt;font style=&quot;font-size: 10px&quot;&gt;&lt;b&gt;DMZ&lt;/b&gt; 192.168.101.0/24&lt;/font&gt;" style="text;html=1;strokeColor=none;fillColor=none;align=center;verticalAlign=middle;whiteSpace=wrap;rounded=0;dashed=1;" parent="WIyWlLk6GJQsqaUBKTNV-1" vertex="1">
          <mxGeometry x="-208" y="755" width="120" height="20" as="geometry" />
        </mxCell>
        <mxCell id="5QetswFkg2Cd5uMD2sd_-53" value="&lt;span style=&quot;font-size: 10px&quot;&gt;почтовый релей&lt;/span&gt;" style="text;html=1;strokeColor=none;fillColor=none;align=center;verticalAlign=middle;whiteSpace=wrap;rounded=0;dashed=1;" parent="WIyWlLk6GJQsqaUBKTNV-1" vertex="1">
          <mxGeometry x="-207" y="845" width="120" height="20" as="geometry" />
        </mxCell>
        <mxCell id="5QetswFkg2Cd5uMD2sd_-63" value="" style="group" parent="WIyWlLk6GJQsqaUBKTNV-1" vertex="1" connectable="0">
          <mxGeometry x="182.5" y="150" width="48.02999999999997" height="57" as="geometry" />
        </mxCell>
        <mxCell id="5QetswFkg2Cd5uMD2sd_-11" value="" style="shadow=0;dashed=0;html=1;strokeColor=none;fillColor=#505050;labelPosition=center;verticalLabelPosition=bottom;verticalAlign=top;outlineConnect=0;align=center;shape=mxgraph.office.databases.database_mini_3;" parent="5QetswFkg2Cd5uMD2sd_-63" vertex="1">
          <mxGeometry width="35" height="57" as="geometry" />
        </mxCell>
        <mxCell id="5QetswFkg2Cd5uMD2sd_-60" value="" style="pointerEvents=1;shadow=0;dashed=0;html=1;strokeColor=none;fillColor=#FF0000;labelPosition=center;verticalLabelPosition=bottom;verticalAlign=top;outlineConnect=0;align=center;shape=mxgraph.office.concepts.credit_card;" parent="5QetswFkg2Cd5uMD2sd_-63" vertex="1">
          <mxGeometry x="20" y="30" width="28.03" height="18.35" as="geometry" />
        </mxCell>
        <mxCell id="5QetswFkg2Cd5uMD2sd_-66" value="" style="pointerEvents=1;shadow=0;dashed=0;html=1;strokeColor=none;fillColor=#505050;labelPosition=center;verticalLabelPosition=bottom;verticalAlign=top;outlineConnect=0;align=center;shape=mxgraph.office.servers.exchange_mailbox_server;labelBackgroundColor=none;" parent="WIyWlLk6GJQsqaUBKTNV-1" vertex="1">
          <mxGeometry x="-170.5" y="786" width="57" height="59" as="geometry" />
        </mxCell>
        <mxCell id="5QetswFkg2Cd5uMD2sd_-68" value="" style="rounded=0;whiteSpace=wrap;html=1;fillColor=none;dashed=1;strokeWidth=1;perimeterSpacing=1;strokeColor=#000000;" parent="WIyWlLk6GJQsqaUBKTNV-1" vertex="1">
          <mxGeometry x="-36.5" y="755" width="119" height="110" as="geometry" />
        </mxCell>
        <mxCell id="5QetswFkg2Cd5uMD2sd_-69" value="&lt;font style=&quot;font-size: 10px&quot;&gt;&lt;b&gt;APP&lt;/b&gt; 192.168.102.0/24&lt;/font&gt;" style="text;html=1;strokeColor=none;fillColor=none;align=center;verticalAlign=middle;whiteSpace=wrap;rounded=0;dashed=1;" parent="WIyWlLk6GJQsqaUBKTNV-1" vertex="1">
          <mxGeometry x="-37.5" y="755" width="120" height="20" as="geometry" />
        </mxCell>
        <mxCell id="5QetswFkg2Cd5uMD2sd_-70" value="&lt;span style=&quot;font-size: 10px&quot;&gt;почтовый сервер&lt;/span&gt;" style="text;html=1;strokeColor=none;fillColor=none;align=center;verticalAlign=middle;whiteSpace=wrap;rounded=0;dashed=1;" parent="WIyWlLk6GJQsqaUBKTNV-1" vertex="1">
          <mxGeometry x="-36.5" y="845" width="120" height="20" as="geometry" />
        </mxCell>
        <mxCell id="5QetswFkg2Cd5uMD2sd_-71" value="" style="pointerEvents=1;shadow=0;dashed=0;html=1;strokeColor=none;fillColor=#505050;labelPosition=center;verticalLabelPosition=bottom;verticalAlign=top;outlineConnect=0;align=center;shape=mxgraph.office.servers.exchange_mailbox_server;labelBackgroundColor=none;" parent="WIyWlLk6GJQsqaUBKTNV-1" vertex="1">
          <mxGeometry y="786" width="57" height="59" as="geometry" />
        </mxCell>
        <mxCell id="5QetswFkg2Cd5uMD2sd_-93" style="edgeStyle=orthogonalEdgeStyle;rounded=1;orthogonalLoop=1;jettySize=auto;html=1;startArrow=classic;startFill=1;endArrow=none;endFill=0;strokeWidth=1;" parent="WIyWlLk6GJQsqaUBKTNV-1" source="5QetswFkg2Cd5uMD2sd_-72" target="5QetswFkg2Cd5uMD2sd_-66" edge="1">
          <mxGeometry relative="1" as="geometry">
            <Array as="points">
              <mxPoint x="-240" y="820" />
              <mxPoint x="-240" y="820" />
            </Array>
          </mxGeometry>
        </mxCell>
        <mxCell id="5QetswFkg2Cd5uMD2sd_-144" value="SMTP/25" style="text;html=1;align=center;verticalAlign=middle;resizable=0;points=[];labelBackgroundColor=#ffffff;fontSize=9;" parent="5QetswFkg2Cd5uMD2sd_-93" vertex="1" connectable="0">
          <mxGeometry x="0.6459" y="-112" relative="1" as="geometry">
            <mxPoint x="-35" y="-111" as="offset" />
          </mxGeometry>
        </mxCell>
        <mxCell id="PLs2SsT15z17GsNhj8Ck-54" style="edgeStyle=orthogonalEdgeStyle;rounded=0;orthogonalLoop=1;jettySize=auto;html=1;endArrow=classic;endFill=1;strokeColor=#000000;strokeWidth=1;" edge="1" parent="WIyWlLk6GJQsqaUBKTNV-1" source="5QetswFkg2Cd5uMD2sd_-72">
          <mxGeometry relative="1" as="geometry">
            <mxPoint x="-370" y="1069.9999999999998" as="targetPoint" />
            <Array as="points">
              <mxPoint x="-591" y="1070" />
            </Array>
          </mxGeometry>
        </mxCell>
        <mxCell id="5QetswFkg2Cd5uMD2sd_-72" value="внешний&lt;br&gt;почтовый сервер" style="pointerEvents=1;shadow=0;dashed=0;html=1;strokeColor=none;fillColor=#505050;labelPosition=center;verticalLabelPosition=bottom;verticalAlign=top;outlineConnect=0;align=center;shape=mxgraph.office.servers.exchange_mailbox_server;labelBackgroundColor=none;" parent="WIyWlLk6GJQsqaUBKTNV-1" vertex="1">
          <mxGeometry x="-620" y="800" width="57" height="59" as="geometry" />
        </mxCell>
        <mxCell id="5QetswFkg2Cd5uMD2sd_-122" style="edgeStyle=orthogonalEdgeStyle;rounded=1;orthogonalLoop=1;jettySize=auto;html=1;startArrow=none;startFill=0;endArrow=classic;endFill=1;strokeWidth=1;" parent="WIyWlLk6GJQsqaUBKTNV-1" source="5QetswFkg2Cd5uMD2sd_-73" target="5QetswFkg2Cd5uMD2sd_-43" edge="1">
          <mxGeometry relative="1" as="geometry">
            <mxPoint x="377.45" y="344.32" as="targetPoint" />
            <Array as="points">
              <mxPoint x="100" y="496" />
              <mxPoint x="100" y="460" />
            </Array>
          </mxGeometry>
        </mxCell>
        <mxCell id="5QetswFkg2Cd5uMD2sd_-73" value="" style="pointerEvents=1;shadow=0;dashed=0;html=1;strokeColor=none;fillColor=#505050;labelPosition=center;verticalLabelPosition=bottom;verticalAlign=top;outlineConnect=0;align=center;shape=mxgraph.office.devices.workstation;labelBackgroundColor=none;" parent="WIyWlLk6GJQsqaUBKTNV-1" vertex="1">
          <mxGeometry x="7.199999999999989" y="468.32" width="53" height="56" as="geometry" />
        </mxCell>
        <mxCell id="5QetswFkg2Cd5uMD2sd_-114" style="edgeStyle=orthogonalEdgeStyle;rounded=1;orthogonalLoop=1;jettySize=auto;html=1;entryX=1;entryY=0.5;entryDx=0;entryDy=0;startArrow=none;startFill=0;endArrow=classic;endFill=1;strokeWidth=1;" parent="WIyWlLk6GJQsqaUBKTNV-1" source="5QetswFkg2Cd5uMD2sd_-75" target="5QetswFkg2Cd5uMD2sd_-68" edge="1">
          <mxGeometry relative="1" as="geometry">
            <Array as="points">
              <mxPoint x="330" y="650" />
              <mxPoint x="330" y="810" />
            </Array>
          </mxGeometry>
        </mxCell>
        <mxCell id="5QetswFkg2Cd5uMD2sd_-140" value="MAPI&lt;br&gt;EWS&lt;br&gt;ActiveSync" style="text;html=1;align=center;verticalAlign=middle;resizable=0;points=[];labelBackgroundColor=#ffffff;fontSize=9;" parent="5QetswFkg2Cd5uMD2sd_-114" vertex="1" connectable="0">
          <mxGeometry x="0.8487" y="2" relative="1" as="geometry">
            <mxPoint x="214.37" y="-102" as="offset" />
          </mxGeometry>
        </mxCell>
        <mxCell id="PLs2SsT15z17GsNhj8Ck-86" style="edgeStyle=orthogonalEdgeStyle;curved=1;rounded=0;orthogonalLoop=1;jettySize=auto;html=1;entryX=1.091;entryY=0.143;entryDx=0;entryDy=0;entryPerimeter=0;endArrow=classic;endFill=1;strokeColor=#FF3333;strokeWidth=4;" edge="1" parent="WIyWlLk6GJQsqaUBKTNV-1" source="5QetswFkg2Cd5uMD2sd_-80" target="PLs2SsT15z17GsNhj8Ck-77">
          <mxGeometry relative="1" as="geometry" />
        </mxCell>
        <mxCell id="PLs2SsT15z17GsNhj8Ck-92" style="edgeStyle=orthogonalEdgeStyle;rounded=0;orthogonalLoop=1;jettySize=auto;html=1;endArrow=classic;endFill=1;strokeColor=#FF3333;strokeWidth=4;curved=1;" edge="1" parent="WIyWlLk6GJQsqaUBKTNV-1" source="5QetswFkg2Cd5uMD2sd_-80" target="PLs2SsT15z17GsNhj8Ck-75">
          <mxGeometry relative="1" as="geometry">
            <Array as="points">
              <mxPoint x="390" y="450" />
              <mxPoint x="490" y="450" />
              <mxPoint x="490" y="500" />
              <mxPoint x="500" y="500" />
              <mxPoint x="500" y="711" />
            </Array>
          </mxGeometry>
        </mxCell>
        <mxCell id="5QetswFkg2Cd5uMD2sd_-80" value="Администраторы" style="pointerEvents=1;shadow=0;dashed=0;html=1;strokeColor=none;fillColor=#505050;labelPosition=center;verticalLabelPosition=bottom;verticalAlign=top;outlineConnect=0;align=center;shape=mxgraph.office.users.users_two;fillColor=#DA4026;labelBackgroundColor=none;" parent="WIyWlLk6GJQsqaUBKTNV-1" vertex="1">
          <mxGeometry x="361" y="363.50000000000006" width="57" height="43" as="geometry" />
        </mxCell>
        <mxCell id="5QetswFkg2Cd5uMD2sd_-83" value="Прочие&lt;br&gt;работники" style="pointerEvents=1;shadow=0;dashed=0;html=1;strokeColor=none;fillColor=#505050;labelPosition=center;verticalLabelPosition=bottom;verticalAlign=top;outlineConnect=0;align=center;shape=mxgraph.office.users.users_two;labelBackgroundColor=none;" parent="WIyWlLk6GJQsqaUBKTNV-1" vertex="1">
          <mxGeometry x="533" y="362.82000000000005" width="57" height="43" as="geometry" />
        </mxCell>
        <mxCell id="5QetswFkg2Cd5uMD2sd_-118" style="edgeStyle=orthogonalEdgeStyle;rounded=1;orthogonalLoop=1;jettySize=auto;html=1;startArrow=none;startFill=0;endArrow=classic;endFill=1;strokeWidth=1;" parent="WIyWlLk6GJQsqaUBKTNV-1" source="5QetswFkg2Cd5uMD2sd_-84" target="5QetswFkg2Cd5uMD2sd_-43" edge="1">
          <mxGeometry relative="1" as="geometry">
            <Array as="points">
              <mxPoint x="415" y="570" />
              <mxPoint x="340" y="570" />
              <mxPoint x="340" y="444" />
            </Array>
          </mxGeometry>
        </mxCell>
        <mxCell id="5QetswFkg2Cd5uMD2sd_-84" value="Операторы&lt;br&gt;АРМ КБР-Н" style="pointerEvents=1;shadow=0;dashed=0;html=1;strokeColor=none;fillColor=#505050;labelPosition=center;verticalLabelPosition=bottom;verticalAlign=top;outlineConnect=0;align=center;shape=mxgraph.office.users.users_two;fillColor=#2072B8;labelBackgroundColor=none;" parent="WIyWlLk6GJQsqaUBKTNV-1" vertex="1">
          <mxGeometry x="386.45" y="580" width="57" height="43" as="geometry" />
        </mxCell>
        <mxCell id="5QetswFkg2Cd5uMD2sd_-119" style="edgeStyle=orthogonalEdgeStyle;rounded=1;orthogonalLoop=1;jettySize=auto;html=1;startArrow=none;startFill=0;endArrow=classic;endFill=1;strokeWidth=1;" parent="WIyWlLk6GJQsqaUBKTNV-1" source="5QetswFkg2Cd5uMD2sd_-86" target="5QetswFkg2Cd5uMD2sd_-43" edge="1">
          <mxGeometry relative="1" as="geometry">
            <mxPoint x="240" y="437.6470588235293" as="targetPoint" />
            <Array as="points">
              <mxPoint x="518" y="570" />
              <mxPoint x="340" y="570" />
              <mxPoint x="340" y="444" />
            </Array>
          </mxGeometry>
        </mxCell>
        <mxCell id="5QetswFkg2Cd5uMD2sd_-137" value="SQLNet/1525" style="text;html=1;align=center;verticalAlign=middle;resizable=0;points=[];labelBackgroundColor=#ffffff;fontSize=9;" parent="5QetswFkg2Cd5uMD2sd_-119" vertex="1" connectable="0">
          <mxGeometry x="-0.7214" relative="1" as="geometry">
            <mxPoint x="-193.45" y="-125.68" as="offset" />
          </mxGeometry>
        </mxCell>
        <mxCell id="5QetswFkg2Cd5uMD2sd_-86" value="Операторы&lt;br&gt;АРМ Сигнатура" style="pointerEvents=1;shadow=0;dashed=0;html=1;strokeColor=none;fillColor=#505050;labelPosition=center;verticalLabelPosition=bottom;verticalAlign=top;outlineConnect=0;align=center;shape=mxgraph.office.users.users_two;fillColor=#2072B8;labelBackgroundColor=none;" parent="WIyWlLk6GJQsqaUBKTNV-1" vertex="1">
          <mxGeometry x="489.22999999999996" y="580" width="57" height="43" as="geometry" />
        </mxCell>
        <mxCell id="5QetswFkg2Cd5uMD2sd_-96" style="edgeStyle=orthogonalEdgeStyle;rounded=1;orthogonalLoop=1;jettySize=auto;html=1;entryX=0.75;entryY=1;entryDx=0;entryDy=0;startArrow=none;startFill=0;endArrow=classic;endFill=1;strokeWidth=1;" parent="WIyWlLk6GJQsqaUBKTNV-1" source="5QetswFkg2Cd5uMD2sd_-95" target="5QetswFkg2Cd5uMD2sd_-75" edge="1">
          <mxGeometry relative="1" as="geometry">
            <Array as="points">
              <mxPoint x="650" y="960" />
              <mxPoint x="650" y="600" />
              <mxPoint x="590" y="600" />
              <mxPoint x="590" y="661" />
            </Array>
          </mxGeometry>
        </mxCell>
        <mxCell id="5QetswFkg2Cd5uMD2sd_-139" value="RDP/3389" style="text;html=1;align=center;verticalAlign=middle;resizable=0;points=[];labelBackgroundColor=#ffffff;fontSize=9;" parent="5QetswFkg2Cd5uMD2sd_-96" vertex="1" connectable="0">
          <mxGeometry x="-0.9612" y="2" relative="1" as="geometry">
            <mxPoint x="25" y="2" as="offset" />
          </mxGeometry>
        </mxCell>
        <mxCell id="5QetswFkg2Cd5uMD2sd_-145" style="edgeStyle=orthogonalEdgeStyle;rounded=1;orthogonalLoop=1;jettySize=auto;html=1;startArrow=none;startFill=0;endArrow=classic;endFill=1;strokeWidth=1;fontSize=9;" parent="WIyWlLk6GJQsqaUBKTNV-1" source="5QetswFkg2Cd5uMD2sd_-95" target="5QetswFkg2Cd5uMD2sd_-71" edge="1">
          <mxGeometry relative="1" as="geometry">
            <Array as="points">
              <mxPoint x="-70" y="949" />
              <mxPoint x="-70" y="816" />
            </Array>
          </mxGeometry>
        </mxCell>
        <mxCell id="5QetswFkg2Cd5uMD2sd_-146" value="POP3/110" style="text;html=1;align=center;verticalAlign=middle;resizable=0;points=[];labelBackgroundColor=#ffffff;fontSize=9;" parent="5QetswFkg2Cd5uMD2sd_-145" vertex="1" connectable="0">
          <mxGeometry x="-0.2769" y="2" relative="1" as="geometry">
            <mxPoint x="-118" y="2" as="offset" />
          </mxGeometry>
        </mxCell>
        <mxCell id="PLs2SsT15z17GsNhj8Ck-57" style="edgeStyle=orthogonalEdgeStyle;rounded=0;orthogonalLoop=1;jettySize=auto;html=1;entryX=0.5;entryY=0;entryDx=0;entryDy=0;entryPerimeter=0;endArrow=classic;endFill=1;strokeColor=#000000;strokeWidth=1;" edge="1" parent="WIyWlLk6GJQsqaUBKTNV-1" source="5QetswFkg2Cd5uMD2sd_-95" target="PLs2SsT15z17GsNhj8Ck-23">
          <mxGeometry relative="1" as="geometry" />
        </mxCell>
        <mxCell id="5QetswFkg2Cd5uMD2sd_-95" value="Удаленные&lt;br&gt;работники Банка" style="pointerEvents=1;shadow=0;dashed=0;html=1;strokeColor=none;fillColor=#505050;labelPosition=center;verticalLabelPosition=bottom;verticalAlign=top;outlineConnect=0;align=center;shape=mxgraph.office.users.user_external;labelBackgroundColor=none;" parent="WIyWlLk6GJQsqaUBKTNV-1" vertex="1">
          <mxGeometry x="-514.84" y="930" width="44.84" height="38" as="geometry" />
        </mxCell>
        <mxCell id="5QetswFkg2Cd5uMD2sd_-98" value="&lt;font style=&quot;font-size: 10px&quot;&gt;&lt;b&gt;APP&lt;/b&gt; 192.168.31.0/24&lt;/font&gt;" style="text;html=1;strokeColor=none;fillColor=none;align=center;verticalAlign=middle;whiteSpace=wrap;rounded=0;dashed=1;" parent="WIyWlLk6GJQsqaUBKTNV-1" vertex="1">
          <mxGeometry x="-30.30000000000001" y="434.32" width="120" height="20" as="geometry" />
        </mxCell>
        <mxCell id="5QetswFkg2Cd5uMD2sd_-99" value="&lt;span style=&quot;font-size: 10px&quot;&gt;АРМ КБР-Н&lt;/span&gt;" style="text;html=1;strokeColor=none;fillColor=none;align=center;verticalAlign=middle;whiteSpace=wrap;rounded=0;dashed=1;" parent="WIyWlLk6GJQsqaUBKTNV-1" vertex="1">
          <mxGeometry x="-209.5" y="640" width="120" height="20" as="geometry" />
        </mxCell>
        <mxCell id="5QetswFkg2Cd5uMD2sd_-120" style="edgeStyle=orthogonalEdgeStyle;rounded=1;orthogonalLoop=1;jettySize=auto;html=1;startArrow=classic;startFill=1;endArrow=none;endFill=0;strokeWidth=1;" parent="WIyWlLk6GJQsqaUBKTNV-1" source="5QetswFkg2Cd5uMD2sd_-107" target="5QetswFkg2Cd5uMD2sd_-43" edge="1">
          <mxGeometry relative="1" as="geometry">
            <Array as="points">
              <mxPoint x="130" y="612" />
              <mxPoint x="130" y="470" />
            </Array>
          </mxGeometry>
        </mxCell>
        <mxCell id="5QetswFkg2Cd5uMD2sd_-138" value="RSync/873" style="text;html=1;align=center;verticalAlign=middle;resizable=0;points=[];labelBackgroundColor=#ffffff;fontSize=9;" parent="5QetswFkg2Cd5uMD2sd_-120" vertex="1" connectable="0">
          <mxGeometry x="-0.2197" y="4" relative="1" as="geometry">
            <mxPoint x="-81" y="-113" as="offset" />
          </mxGeometry>
        </mxCell>
        <mxCell id="5QetswFkg2Cd5uMD2sd_-148" value="TCP/9999" style="text;html=1;align=center;verticalAlign=middle;resizable=0;points=[];labelBackgroundColor=#ffffff;fontSize=9;" parent="5QetswFkg2Cd5uMD2sd_-120" vertex="1" connectable="0">
          <mxGeometry x="-0.0689" y="1" relative="1" as="geometry">
            <mxPoint as="offset" />
          </mxGeometry>
        </mxCell>
        <mxCell id="5QetswFkg2Cd5uMD2sd_-106" value="" style="rounded=0;whiteSpace=wrap;html=1;fillColor=none;dashed=1;strokeWidth=1;perimeterSpacing=1;strokeColor=#000000;" parent="WIyWlLk6GJQsqaUBKTNV-1" vertex="1">
          <mxGeometry x="-29.5" y="550" width="119" height="110" as="geometry" />
        </mxCell>
        <mxCell id="5QetswFkg2Cd5uMD2sd_-107" value="" style="pointerEvents=1;shadow=0;dashed=0;html=1;strokeColor=none;fillColor=#505050;labelPosition=center;verticalLabelPosition=bottom;verticalAlign=top;outlineConnect=0;align=center;shape=mxgraph.office.devices.workstation;labelBackgroundColor=none;" parent="WIyWlLk6GJQsqaUBKTNV-1" vertex="1">
          <mxGeometry x="7" y="584" width="53" height="56" as="geometry" />
        </mxCell>
        <mxCell id="5QetswFkg2Cd5uMD2sd_-108" value="&lt;font style=&quot;font-size: 10px&quot;&gt;&lt;b&gt;APP&lt;/b&gt; 192.168.32.0/24&lt;/font&gt;" style="text;html=1;strokeColor=none;fillColor=none;align=center;verticalAlign=middle;whiteSpace=wrap;rounded=0;dashed=1;" parent="WIyWlLk6GJQsqaUBKTNV-1" vertex="1">
          <mxGeometry x="-30.5" y="550" width="120" height="20" as="geometry" />
        </mxCell>
        <mxCell id="5QetswFkg2Cd5uMD2sd_-109" value="&lt;span style=&quot;font-size: 10px&quot;&gt;АРМ Сигнатура&lt;/span&gt;" style="text;html=1;strokeColor=none;fillColor=none;align=center;verticalAlign=middle;whiteSpace=wrap;rounded=0;dashed=1;" parent="WIyWlLk6GJQsqaUBKTNV-1" vertex="1">
          <mxGeometry x="-29.5" y="640" width="120" height="20" as="geometry" />
        </mxCell>
        <mxCell id="5QetswFkg2Cd5uMD2sd_-111" value="" style="pointerEvents=1;shadow=0;dashed=0;html=1;strokeColor=none;fillColor=#505050;labelPosition=center;verticalLabelPosition=bottom;verticalAlign=top;outlineConnect=0;align=center;shape=mxgraph.office.servers.mainframe_host;labelBackgroundColor=none;" parent="WIyWlLk6GJQsqaUBKTNV-1" vertex="1">
          <mxGeometry x="-503" y="591" width="44" height="42" as="geometry" />
        </mxCell>
        <mxCell id="5QetswFkg2Cd5uMD2sd_-112" value="" style="edgeStyle=orthogonalEdgeStyle;rounded=1;orthogonalLoop=1;jettySize=auto;html=1;startArrow=classic;startFill=1;endArrow=none;endFill=0;strokeWidth=1;" parent="WIyWlLk6GJQsqaUBKTNV-1" source="5QetswFkg2Cd5uMD2sd_-110" target="5QetswFkg2Cd5uMD2sd_-73" edge="1">
          <mxGeometry relative="1" as="geometry">
            <Array as="points">
              <mxPoint x="-326" y="550" />
              <mxPoint x="34" y="550" />
            </Array>
            <mxPoint x="-91.30000000000001" y="496.32" as="sourcePoint" />
          </mxGeometry>
        </mxCell>
        <mxCell id="5QetswFkg2Cd5uMD2sd_-147" value="HTTP" style="text;html=1;align=center;verticalAlign=middle;resizable=0;points=[];labelBackgroundColor=#ffffff;fontSize=9;" parent="5QetswFkg2Cd5uMD2sd_-112" vertex="1" connectable="0">
          <mxGeometry x="0.2487" y="-23" relative="1" as="geometry">
            <mxPoint x="-22" y="-22" as="offset" />
          </mxGeometry>
        </mxCell>
        <mxCell id="5QetswFkg2Cd5uMD2sd_-113" style="edgeStyle=orthogonalEdgeStyle;rounded=1;orthogonalLoop=1;jettySize=auto;html=1;startArrow=none;startFill=0;endArrow=classic;endFill=1;strokeWidth=1;" parent="WIyWlLk6GJQsqaUBKTNV-1" source="5QetswFkg2Cd5uMD2sd_-110" target="5QetswFkg2Cd5uMD2sd_-111" edge="1">
          <mxGeometry relative="1" as="geometry" />
        </mxCell>
        <mxCell id="5QetswFkg2Cd5uMD2sd_-110" value="VPN-туннель" style="pointerEvents=1;shadow=0;dashed=0;html=1;strokeColor=none;fillColor=#505050;labelPosition=center;verticalLabelPosition=bottom;verticalAlign=top;outlineConnect=0;align=center;shape=mxgraph.office.servers.tunnel_straight;labelBackgroundColor=none;" parent="WIyWlLk6GJQsqaUBKTNV-1" vertex="1">
          <mxGeometry x="-380" y="602" width="108.5" height="20" as="geometry" />
        </mxCell>
        <mxCell id="5QetswFkg2Cd5uMD2sd_-125" value="&lt;span style=&quot;font-size: 11px&quot;&gt;Сегменты критичных сервисов (промышленные)&lt;/span&gt;" style="text;html=1;strokeColor=none;fillColor=none;align=center;verticalAlign=middle;whiteSpace=wrap;rounded=0;dashed=1;" parent="WIyWlLk6GJQsqaUBKTNV-1" vertex="1">
          <mxGeometry x="-141" y="363.5" width="320" height="20" as="geometry" />
        </mxCell>
        <mxCell id="5QetswFkg2Cd5uMD2sd_-126" value="&lt;span style=&quot;font-size: 11px&quot;&gt;Сегменты внутренних сервисов (корпоративные)&lt;/span&gt;" style="text;html=1;strokeColor=none;fillColor=none;align=center;verticalAlign=middle;whiteSpace=wrap;rounded=0;dashed=1;" parent="WIyWlLk6GJQsqaUBKTNV-1" vertex="1">
          <mxGeometry x="-138" y="730" width="320" height="20" as="geometry" />
        </mxCell>
        <mxCell id="5QetswFkg2Cd5uMD2sd_-128" value="&lt;font style=&quot;font-size: 10px&quot;&gt;&lt;b&gt;DMZ&lt;/b&gt;&lt;/font&gt;" style="text;html=1;strokeColor=none;fillColor=none;align=center;verticalAlign=middle;whiteSpace=wrap;rounded=0;dashed=1;" parent="WIyWlLk6GJQsqaUBKTNV-1" vertex="1">
          <mxGeometry x="-541" y="557" width="41" height="20" as="geometry" />
        </mxCell>
        <mxCell id="PLs2SsT15z17GsNhj8Ck-60" style="edgeStyle=orthogonalEdgeStyle;rounded=0;orthogonalLoop=1;jettySize=auto;html=1;endArrow=classic;endFill=1;strokeColor=#000000;strokeWidth=1;" edge="1" parent="WIyWlLk6GJQsqaUBKTNV-1" source="5QetswFkg2Cd5uMD2sd_-129" target="PLs2SsT15z17GsNhj8Ck-23">
          <mxGeometry relative="1" as="geometry">
            <Array as="points">
              <mxPoint x="-480" y="1074" />
            </Array>
          </mxGeometry>
        </mxCell>
        <mxCell id="5QetswFkg2Cd5uMD2sd_-129" value="&lt;span style=&quot;font-size: 10px&quot;&gt;сервер Банка России&lt;/span&gt;" style="text;html=1;strokeColor=none;fillColor=none;align=center;verticalAlign=middle;whiteSpace=wrap;rounded=0;dashed=1;" parent="WIyWlLk6GJQsqaUBKTNV-1" vertex="1">
          <mxGeometry x="-540" y="647" width="120" height="20" as="geometry" />
        </mxCell>
        <mxCell id="5QetswFkg2Cd5uMD2sd_-135" value="Клиент" style="pointerEvents=1;shadow=0;dashed=0;html=1;strokeColor=none;fillColor=#505050;labelPosition=center;verticalLabelPosition=bottom;verticalAlign=top;outlineConnect=0;align=center;shape=mxgraph.office.users.mobile_user;labelBackgroundColor=none;" parent="WIyWlLk6GJQsqaUBKTNV-1" vertex="1">
          <mxGeometry x="-514.84" y="422.91" width="45.11" height="42.82" as="geometry" />
        </mxCell>
        <mxCell id="PLs2SsT15z17GsNhj8Ck-14" value="" style="points=[[0.13,0.02,0],[0.5,0,0],[0.87,0.02,0],[0.885,0.4,0],[0.985,0.985,0],[0.5,1,0],[0.015,0.985,0],[0.115,0.4,0]];verticalLabelPosition=bottom;sketch=0;html=1;verticalAlign=top;aspect=fixed;align=center;pointerEvents=1;shape=mxgraph.cisco19.secure_endpoints;fillColor=#005073;strokeColor=none;" vertex="1" parent="WIyWlLk6GJQsqaUBKTNV-1">
          <mxGeometry x="536.5" y="450" width="50" height="35" as="geometry" />
        </mxCell>
        <mxCell id="PLs2SsT15z17GsNhj8Ck-15" value="" style="points=[[0.13,0.02,0],[0.5,0,0],[0.87,0.02,0],[0.885,0.4,0],[0.985,0.985,0],[0.5,1,0],[0.015,0.985,0],[0.115,0.4,0]];verticalLabelPosition=bottom;sketch=0;html=1;verticalAlign=top;aspect=fixed;align=center;pointerEvents=1;shape=mxgraph.cisco19.secure_endpoints;fillColor=#005073;strokeColor=none;" vertex="1" parent="WIyWlLk6GJQsqaUBKTNV-1">
          <mxGeometry x="364.5" y="440.82" width="50" height="35" as="geometry" />
        </mxCell>
        <mxCell id="PLs2SsT15z17GsNhj8Ck-20" style="edgeStyle=orthogonalEdgeStyle;rounded=0;orthogonalLoop=1;jettySize=auto;html=1;exitX=0.5;exitY=1;exitDx=0;exitDy=0;" edge="1" parent="WIyWlLk6GJQsqaUBKTNV-1" source="PLs2SsT15z17GsNhj8Ck-2" target="PLs2SsT15z17GsNhj8Ck-2">
          <mxGeometry relative="1" as="geometry" />
        </mxCell>
        <mxCell id="PLs2SsT15z17GsNhj8Ck-42" style="edgeStyle=orthogonalEdgeStyle;rounded=0;orthogonalLoop=1;jettySize=auto;html=1;endArrow=classic;endFill=1;strokeColor=#000000;strokeWidth=1;" edge="1" parent="WIyWlLk6GJQsqaUBKTNV-1" source="PLs2SsT15z17GsNhj8Ck-21">
          <mxGeometry relative="1" as="geometry">
            <mxPoint x="60" y="1073.7499999999998" as="targetPoint" />
          </mxGeometry>
        </mxCell>
        <mxCell id="PLs2SsT15z17GsNhj8Ck-43" style="edgeStyle=orthogonalEdgeStyle;rounded=0;orthogonalLoop=1;jettySize=auto;html=1;endArrow=classic;endFill=1;strokeColor=#000000;strokeWidth=1;" edge="1" parent="WIyWlLk6GJQsqaUBKTNV-1" source="PLs2SsT15z17GsNhj8Ck-21">
          <mxGeometry relative="1" as="geometry">
            <mxPoint x="360" y="501.42857142857144" as="targetPoint" />
            <Array as="points">
              <mxPoint x="336" y="790" />
              <mxPoint x="330" y="790" />
              <mxPoint x="330" y="510" />
              <mxPoint x="360" y="510" />
            </Array>
          </mxGeometry>
        </mxCell>
        <mxCell id="PLs2SsT15z17GsNhj8Ck-44" style="edgeStyle=orthogonalEdgeStyle;rounded=0;orthogonalLoop=1;jettySize=auto;html=1;endArrow=classic;endFill=1;strokeColor=#000000;strokeWidth=1;" edge="1" parent="WIyWlLk6GJQsqaUBKTNV-1" source="PLs2SsT15z17GsNhj8Ck-21" target="PLs2SsT15z17GsNhj8Ck-27">
          <mxGeometry relative="1" as="geometry">
            <Array as="points">
              <mxPoint x="680" y="1074" />
              <mxPoint x="680" y="510" />
            </Array>
          </mxGeometry>
        </mxCell>
        <mxCell id="PLs2SsT15z17GsNhj8Ck-45" style="edgeStyle=orthogonalEdgeStyle;rounded=0;orthogonalLoop=1;jettySize=auto;html=1;endArrow=classic;endFill=1;strokeColor=#000000;strokeWidth=1;" edge="1" parent="WIyWlLk6GJQsqaUBKTNV-1" source="PLs2SsT15z17GsNhj8Ck-21" target="PLs2SsT15z17GsNhj8Ck-25">
          <mxGeometry relative="1" as="geometry">
            <Array as="points">
              <mxPoint x="310" y="978" />
            </Array>
          </mxGeometry>
        </mxCell>
        <mxCell id="PLs2SsT15z17GsNhj8Ck-51" style="edgeStyle=orthogonalEdgeStyle;rounded=0;orthogonalLoop=1;jettySize=auto;html=1;endArrow=classic;endFill=1;strokeColor=#000000;strokeWidth=1;" edge="1" parent="WIyWlLk6GJQsqaUBKTNV-1" source="PLs2SsT15z17GsNhj8Ck-21">
          <mxGeometry relative="1" as="geometry">
            <mxPoint x="60" y="989.9999999999998" as="targetPoint" />
            <Array as="points">
              <mxPoint x="300" y="990" />
            </Array>
          </mxGeometry>
        </mxCell>
        <mxCell id="PLs2SsT15z17GsNhj8Ck-21" value="" style="fontColor=#0066CC;verticalAlign=top;verticalLabelPosition=bottom;labelPosition=center;align=center;html=1;outlineConnect=0;fillColor=#CCCCCC;strokeColor=#6881B3;gradientColor=none;gradientDirection=north;strokeWidth=2;shape=mxgraph.networks.router;" vertex="1" parent="WIyWlLk6GJQsqaUBKTNV-1">
          <mxGeometry x="296.78" y="1060" width="78.45" height="27.5" as="geometry" />
        </mxCell>
        <mxCell id="PLs2SsT15z17GsNhj8Ck-49" style="edgeStyle=orthogonalEdgeStyle;rounded=0;orthogonalLoop=1;jettySize=auto;html=1;endArrow=classic;endFill=1;strokeColor=#000000;strokeWidth=1;" edge="1" parent="WIyWlLk6GJQsqaUBKTNV-1" source="PLs2SsT15z17GsNhj8Ck-23">
          <mxGeometry relative="1" as="geometry">
            <mxPoint x="-20" y="1073.7499999999998" as="targetPoint" />
          </mxGeometry>
        </mxCell>
        <mxCell id="PLs2SsT15z17GsNhj8Ck-52" style="edgeStyle=orthogonalEdgeStyle;rounded=0;orthogonalLoop=1;jettySize=auto;html=1;endArrow=classic;endFill=1;strokeColor=#000000;strokeWidth=1;" edge="1" parent="WIyWlLk6GJQsqaUBKTNV-1" source="PLs2SsT15z17GsNhj8Ck-23" target="5QetswFkg2Cd5uMD2sd_-72">
          <mxGeometry relative="1" as="geometry" />
        </mxCell>
        <mxCell id="PLs2SsT15z17GsNhj8Ck-53" style="edgeStyle=orthogonalEdgeStyle;rounded=0;orthogonalLoop=1;jettySize=auto;html=1;entryX=0;entryY=0.5;entryDx=0;entryDy=0;endArrow=classic;endFill=1;strokeColor=#000000;strokeWidth=1;" edge="1" parent="WIyWlLk6GJQsqaUBKTNV-1" source="PLs2SsT15z17GsNhj8Ck-23" target="5QetswFkg2Cd5uMD2sd_-0">
          <mxGeometry relative="1" as="geometry">
            <Array as="points">
              <mxPoint x="-730" y="1074" />
              <mxPoint x="-730" y="150" />
            </Array>
          </mxGeometry>
        </mxCell>
        <mxCell id="PLs2SsT15z17GsNhj8Ck-58" style="edgeStyle=orthogonalEdgeStyle;rounded=0;orthogonalLoop=1;jettySize=auto;html=1;endArrow=classic;endFill=1;strokeColor=#000000;strokeWidth=1;" edge="1" parent="WIyWlLk6GJQsqaUBKTNV-1" source="PLs2SsT15z17GsNhj8Ck-23" target="5QetswFkg2Cd5uMD2sd_-95">
          <mxGeometry relative="1" as="geometry">
            <Array as="points">
              <mxPoint x="-326" y="949" />
            </Array>
          </mxGeometry>
        </mxCell>
        <mxCell id="PLs2SsT15z17GsNhj8Ck-59" style="edgeStyle=orthogonalEdgeStyle;rounded=0;orthogonalLoop=1;jettySize=auto;html=1;entryX=0.5;entryY=1;entryDx=0;entryDy=0;endArrow=classic;endFill=1;strokeColor=#000000;strokeWidth=1;" edge="1" parent="WIyWlLk6GJQsqaUBKTNV-1" source="PLs2SsT15z17GsNhj8Ck-23" target="5QetswFkg2Cd5uMD2sd_-129">
          <mxGeometry relative="1" as="geometry" />
        </mxCell>
        <mxCell id="PLs2SsT15z17GsNhj8Ck-23" value="" style="fontColor=#0066CC;verticalAlign=top;verticalLabelPosition=bottom;labelPosition=center;align=center;html=1;outlineConnect=0;fillColor=#CCCCCC;strokeColor=#6881B3;gradientColor=none;gradientDirection=north;strokeWidth=2;shape=mxgraph.networks.router;" vertex="1" parent="WIyWlLk6GJQsqaUBKTNV-1">
          <mxGeometry x="-364.97" y="1060" width="78.45" height="27.5" as="geometry" />
        </mxCell>
        <mxCell id="PLs2SsT15z17GsNhj8Ck-47" style="edgeStyle=orthogonalEdgeStyle;rounded=0;orthogonalLoop=1;jettySize=auto;html=1;endArrow=classic;endFill=1;strokeColor=#000000;strokeWidth=1;" edge="1" parent="WIyWlLk6GJQsqaUBKTNV-1" source="PLs2SsT15z17GsNhj8Ck-24" target="PLs2SsT15z17GsNhj8Ck-21">
          <mxGeometry relative="1" as="geometry" />
        </mxCell>
        <mxCell id="PLs2SsT15z17GsNhj8Ck-48" style="edgeStyle=orthogonalEdgeStyle;rounded=0;orthogonalLoop=1;jettySize=auto;html=1;entryX=1;entryY=0.5;entryDx=0;entryDy=0;entryPerimeter=0;endArrow=classic;endFill=1;strokeColor=#000000;strokeWidth=1;" edge="1" parent="WIyWlLk6GJQsqaUBKTNV-1" source="PLs2SsT15z17GsNhj8Ck-24" target="PLs2SsT15z17GsNhj8Ck-23">
          <mxGeometry relative="1" as="geometry" />
        </mxCell>
        <mxCell id="PLs2SsT15z17GsNhj8Ck-24" value="" style="fontColor=#0066CC;verticalAlign=top;verticalLabelPosition=bottom;labelPosition=center;align=center;html=1;outlineConnect=0;fillColor=#CCCCCC;strokeColor=#6881B3;gradientColor=none;gradientDirection=north;strokeWidth=2;shape=mxgraph.networks.router;" vertex="1" parent="WIyWlLk6GJQsqaUBKTNV-1">
          <mxGeometry x="-21.450000000000045" y="1060" width="78.45" height="27.5" as="geometry" />
        </mxCell>
        <mxCell id="PLs2SsT15z17GsNhj8Ck-41" style="edgeStyle=orthogonalEdgeStyle;rounded=0;orthogonalLoop=1;jettySize=auto;html=1;entryX=0.05;entryY=0.05;entryDx=0;entryDy=0;entryPerimeter=0;endArrow=classic;endFill=1;strokeColor=#000000;strokeWidth=1;" edge="1" parent="WIyWlLk6GJQsqaUBKTNV-1" source="PLs2SsT15z17GsNhj8Ck-25" target="PLs2SsT15z17GsNhj8Ck-21">
          <mxGeometry relative="1" as="geometry">
            <Array as="points">
              <mxPoint x="310" y="978" />
              <mxPoint x="310" y="1061" />
            </Array>
          </mxGeometry>
        </mxCell>
        <mxCell id="PLs2SsT15z17GsNhj8Ck-25" value="" style="fontColor=#0066CC;verticalAlign=top;verticalLabelPosition=bottom;labelPosition=center;align=center;html=1;outlineConnect=0;fillColor=#CCCCCC;strokeColor=#6881B3;gradientColor=none;gradientDirection=north;strokeWidth=2;shape=mxgraph.networks.modem;" vertex="1" parent="WIyWlLk6GJQsqaUBKTNV-1">
          <mxGeometry x="193.02" y="968" width="74.95" height="20" as="geometry" />
        </mxCell>
        <mxCell id="PLs2SsT15z17GsNhj8Ck-40" style="edgeStyle=orthogonalEdgeStyle;rounded=0;orthogonalLoop=1;jettySize=auto;html=1;entryX=0.5;entryY=0;entryDx=0;entryDy=0;entryPerimeter=0;endArrow=classic;endFill=1;strokeWidth=1;" edge="1" parent="WIyWlLk6GJQsqaUBKTNV-1" source="PLs2SsT15z17GsNhj8Ck-26" target="PLs2SsT15z17GsNhj8Ck-21">
          <mxGeometry relative="1" as="geometry">
            <Array as="points">
              <mxPoint x="330" y="510" />
              <mxPoint x="330" y="790" />
              <mxPoint x="336" y="790" />
            </Array>
          </mxGeometry>
        </mxCell>
        <mxCell id="PLs2SsT15z17GsNhj8Ck-26" value="" style="fontColor=#0066CC;verticalAlign=top;verticalLabelPosition=bottom;labelPosition=center;align=center;html=1;outlineConnect=0;fillColor=#CCCCCC;strokeColor=#6881B3;gradientColor=none;gradientDirection=north;strokeWidth=2;shape=mxgraph.networks.modem;" vertex="1" parent="WIyWlLk6GJQsqaUBKTNV-1">
          <mxGeometry x="361" y="500" width="74.95" height="20" as="geometry" />
        </mxCell>
        <mxCell id="PLs2SsT15z17GsNhj8Ck-27" value="" style="fontColor=#0066CC;verticalAlign=top;verticalLabelPosition=bottom;labelPosition=center;align=center;html=1;outlineConnect=0;fillColor=#CCCCCC;strokeColor=#6881B3;gradientColor=none;gradientDirection=north;strokeWidth=2;shape=mxgraph.networks.modem;" vertex="1" parent="WIyWlLk6GJQsqaUBKTNV-1">
          <mxGeometry x="524.02" y="500" width="74.95" height="20" as="geometry" />
        </mxCell>
        <mxCell id="PLs2SsT15z17GsNhj8Ck-50" style="edgeStyle=orthogonalEdgeStyle;rounded=0;orthogonalLoop=1;jettySize=auto;html=1;endArrow=classic;endFill=1;strokeColor=#000000;strokeWidth=1;entryX=0.05;entryY=0.05;entryDx=0;entryDy=0;entryPerimeter=0;" edge="1" parent="WIyWlLk6GJQsqaUBKTNV-1" source="PLs2SsT15z17GsNhj8Ck-29" target="PLs2SsT15z17GsNhj8Ck-21">
          <mxGeometry relative="1" as="geometry">
            <mxPoint x="280" y="1059.9999999999998" as="targetPoint" />
            <Array as="points">
              <mxPoint x="300" y="990" />
            </Array>
          </mxGeometry>
        </mxCell>
        <mxCell id="PLs2SsT15z17GsNhj8Ck-29" value="" style="fontColor=#0066CC;verticalAlign=top;verticalLabelPosition=bottom;labelPosition=center;align=center;html=1;outlineConnect=0;fillColor=#CCCCCC;strokeColor=#6881B3;gradientColor=none;gradientDirection=north;strokeWidth=2;shape=mxgraph.networks.modem;" vertex="1" parent="WIyWlLk6GJQsqaUBKTNV-1">
          <mxGeometry x="-13.980000000000011" y="980" width="74.95" height="20" as="geometry" />
        </mxCell>
        <mxCell id="PLs2SsT15z17GsNhj8Ck-37" style="edgeStyle=orthogonalEdgeStyle;rounded=0;orthogonalLoop=1;jettySize=auto;html=1;endArrow=classic;endFill=1;strokeWidth=1;" edge="1" parent="WIyWlLk6GJQsqaUBKTNV-1" source="PLs2SsT15z17GsNhj8Ck-28" target="PLs2SsT15z17GsNhj8Ck-24">
          <mxGeometry relative="1" as="geometry">
            <Array as="points">
              <mxPoint x="-183" y="1020" />
              <mxPoint x="18" y="1020" />
            </Array>
          </mxGeometry>
        </mxCell>
        <mxCell id="PLs2SsT15z17GsNhj8Ck-28" value="" style="fontColor=#0066CC;verticalAlign=top;verticalLabelPosition=bottom;labelPosition=center;align=center;html=1;outlineConnect=0;fillColor=#CCCCCC;strokeColor=#6881B3;gradientColor=none;gradientDirection=north;strokeWidth=2;shape=mxgraph.networks.modem;" vertex="1" parent="WIyWlLk6GJQsqaUBKTNV-1">
          <mxGeometry x="-220.5" y="980" width="74.95" height="20" as="geometry" />
        </mxCell>
        <mxCell id="PLs2SsT15z17GsNhj8Ck-55" value="" style="sketch=0;points=[[0.015,0.015,0],[0.985,0.015,0],[0.985,0.985,0],[0.015,0.985,0],[0.25,0,0],[0.5,0,0],[0.75,0,0],[1,0.25,0],[1,0.5,0],[1,0.75,0],[0.75,1,0],[0.5,1,0],[0.25,1,0],[0,0.75,0],[0,0.5,0],[0,0.25,0]];verticalLabelPosition=bottom;html=1;verticalAlign=top;aspect=fixed;align=center;pointerEvents=1;shape=mxgraph.cisco19.rect;prIcon=firewall;fillColor=#FAFAFA;strokeColor=#005073;" vertex="1" parent="WIyWlLk6GJQsqaUBKTNV-1">
          <mxGeometry x="133.25" y="1048.75" width="64" height="50" as="geometry" />
        </mxCell>
        <mxCell id="PLs2SsT15z17GsNhj8Ck-56" value="" style="sketch=0;points=[[0.015,0.015,0],[0.985,0.015,0],[0.985,0.985,0],[0.015,0.985,0],[0.25,0,0],[0.5,0,0],[0.75,0,0],[1,0.25,0],[1,0.5,0],[1,0.75,0],[0.75,1,0],[0.5,1,0],[0.25,1,0],[0,0.75,0],[0,0.5,0],[0,0.25,0]];verticalLabelPosition=bottom;html=1;verticalAlign=top;aspect=fixed;align=center;pointerEvents=1;shape=mxgraph.cisco19.rect;prIcon=firewall;fillColor=#FAFAFA;strokeColor=#005073;" vertex="1" parent="WIyWlLk6GJQsqaUBKTNV-1">
          <mxGeometry x="-193" y="1048.75" width="64" height="50" as="geometry" />
        </mxCell>
        <mxCell id="PLs2SsT15z17GsNhj8Ck-105" style="edgeStyle=orthogonalEdgeStyle;curved=1;rounded=0;orthogonalLoop=1;jettySize=auto;html=1;entryX=1;entryY=0.5;entryDx=0;entryDy=0;endArrow=classic;endFill=1;strokeColor=#00CC00;strokeWidth=4;" edge="1" parent="WIyWlLk6GJQsqaUBKTNV-1" source="PLs2SsT15z17GsNhj8Ck-73" target="5QetswFkg2Cd5uMD2sd_-106">
          <mxGeometry relative="1" as="geometry" />
        </mxCell>
        <mxCell id="PLs2SsT15z17GsNhj8Ck-107" style="edgeStyle=orthogonalEdgeStyle;curved=1;rounded=0;orthogonalLoop=1;jettySize=auto;html=1;entryX=1.116;entryY=0.74;entryDx=0;entryDy=0;entryPerimeter=0;endArrow=classic;endFill=1;strokeColor=#00CC00;strokeWidth=4;" edge="1" parent="WIyWlLk6GJQsqaUBKTNV-1" source="PLs2SsT15z17GsNhj8Ck-73" target="PLs2SsT15z17GsNhj8Ck-96">
          <mxGeometry relative="1" as="geometry" />
        </mxCell>
        <mxCell id="PLs2SsT15z17GsNhj8Ck-108" style="edgeStyle=orthogonalEdgeStyle;curved=1;rounded=0;orthogonalLoop=1;jettySize=auto;html=1;entryX=0.322;entryY=0.961;entryDx=0;entryDy=0;entryPerimeter=0;endArrow=classic;endFill=1;strokeColor=#00CC00;strokeWidth=4;" edge="1" parent="WIyWlLk6GJQsqaUBKTNV-1" source="PLs2SsT15z17GsNhj8Ck-73" target="PLs2SsT15z17GsNhj8Ck-97">
          <mxGeometry relative="1" as="geometry" />
        </mxCell>
        <mxCell id="PLs2SsT15z17GsNhj8Ck-73" value="" style="pointerEvents=1;shadow=0;dashed=0;html=1;strokeColor=none;fillColor=#FF3333;labelPosition=center;verticalLabelPosition=bottom;verticalAlign=top;outlineConnect=0;align=center;shape=mxgraph.office.servers.mainframe_host;labelBackgroundColor=none;" vertex="1" parent="WIyWlLk6GJQsqaUBKTNV-1">
          <mxGeometry x="400.68000000000006" y="803" width="44" height="42" as="geometry" />
        </mxCell>
        <mxCell id="PLs2SsT15z17GsNhj8Ck-74" value="" style="pointerEvents=1;shadow=0;dashed=0;html=1;strokeColor=none;fillColor=#FF3333;labelPosition=center;verticalLabelPosition=bottom;verticalAlign=top;outlineConnect=0;align=center;shape=mxgraph.office.servers.mainframe_host;labelBackgroundColor=none;" vertex="1" parent="WIyWlLk6GJQsqaUBKTNV-1">
          <mxGeometry x="547.46" y="713" width="44" height="42" as="geometry" />
        </mxCell>
        <mxCell id="PLs2SsT15z17GsNhj8Ck-75" value="" style="pointerEvents=1;shadow=0;dashed=0;html=1;strokeColor=none;fillColor=#FF3333;labelPosition=center;verticalLabelPosition=bottom;verticalAlign=top;outlineConnect=0;align=center;shape=mxgraph.office.servers.mainframe_host;labelBackgroundColor=none;strokeWidth=2;" vertex="1" parent="WIyWlLk6GJQsqaUBKTNV-1">
          <mxGeometry x="375.23" y="690" width="44" height="42" as="geometry" />
        </mxCell>
        <mxCell id="PLs2SsT15z17GsNhj8Ck-83" style="edgeStyle=orthogonalEdgeStyle;curved=1;rounded=0;orthogonalLoop=1;jettySize=auto;html=1;endArrow=classic;endFill=1;strokeColor=#000000;strokeWidth=4;" edge="1" parent="WIyWlLk6GJQsqaUBKTNV-1" source="PLs2SsT15z17GsNhj8Ck-76" target="PLs2SsT15z17GsNhj8Ck-1">
          <mxGeometry relative="1" as="geometry" />
        </mxCell>
        <mxCell id="PLs2SsT15z17GsNhj8Ck-84" style="edgeStyle=orthogonalEdgeStyle;curved=1;rounded=0;orthogonalLoop=1;jettySize=auto;html=1;endArrow=classic;endFill=1;strokeColor=#000000;strokeWidth=4;" edge="1" parent="WIyWlLk6GJQsqaUBKTNV-1" source="PLs2SsT15z17GsNhj8Ck-76">
          <mxGeometry relative="1" as="geometry">
            <mxPoint x="320" y="580" as="targetPoint" />
          </mxGeometry>
        </mxCell>
        <mxCell id="PLs2SsT15z17GsNhj8Ck-88" style="edgeStyle=orthogonalEdgeStyle;curved=1;rounded=0;orthogonalLoop=1;jettySize=auto;html=1;endArrow=classic;endFill=1;strokeColor=#1A1A1A;strokeWidth=4;" edge="1" parent="WIyWlLk6GJQsqaUBKTNV-1" source="PLs2SsT15z17GsNhj8Ck-76" target="PLs2SsT15z17GsNhj8Ck-74">
          <mxGeometry relative="1" as="geometry" />
        </mxCell>
        <mxCell id="PLs2SsT15z17GsNhj8Ck-76" value="" style="verticalLabelPosition=bottom;sketch=0;html=1;fillColor=#FF3333;strokeColor=none;verticalAlign=top;pointerEvents=1;align=center;shape=mxgraph.cisco_safe.security_icons.icon19;" vertex="1" parent="WIyWlLk6GJQsqaUBKTNV-1">
          <mxGeometry x="401.18" y="713" width="30" height="30" as="geometry" />
        </mxCell>
        <mxCell id="PLs2SsT15z17GsNhj8Ck-104" style="edgeStyle=orthogonalEdgeStyle;curved=1;rounded=0;orthogonalLoop=1;jettySize=auto;html=1;entryX=1;entryY=0.603;entryDx=0;entryDy=0;entryPerimeter=0;endArrow=classic;endFill=1;strokeColor=#00CC00;strokeWidth=4;" edge="1" parent="WIyWlLk6GJQsqaUBKTNV-1" source="PLs2SsT15z17GsNhj8Ck-77" target="PLs2SsT15z17GsNhj8Ck-98">
          <mxGeometry relative="1" as="geometry" />
        </mxCell>
        <mxCell id="PLs2SsT15z17GsNhj8Ck-77" value="" style="verticalLabelPosition=bottom;sketch=0;html=1;fillColor=#FF3333;strokeColor=none;verticalAlign=top;pointerEvents=1;align=center;shape=mxgraph.cisco_safe.security_icons.trustsec;" vertex="1" parent="WIyWlLk6GJQsqaUBKTNV-1">
          <mxGeometry x="421.23" y="824" width="40" height="35" as="geometry" />
        </mxCell>
        <mxCell id="PLs2SsT15z17GsNhj8Ck-78" value="" style="shadow=0;dashed=0;html=1;strokeColor=none;fillColor=#FF3333;labelPosition=center;verticalLabelPosition=bottom;verticalAlign=top;outlineConnect=0;align=center;shape=mxgraph.office.databases.database_mini_3;" vertex="1" parent="WIyWlLk6GJQsqaUBKTNV-1">
          <mxGeometry x="587.73" y="743" width="24.45" height="27" as="geometry" />
        </mxCell>
        <mxCell id="PLs2SsT15z17GsNhj8Ck-85" style="edgeStyle=orthogonalEdgeStyle;curved=1;rounded=0;orthogonalLoop=1;jettySize=auto;html=1;entryX=1;entryY=0.75;entryDx=0;entryDy=0;endArrow=classic;endFill=1;strokeColor=#000000;strokeWidth=4;" edge="1" parent="WIyWlLk6GJQsqaUBKTNV-1" source="PLs2SsT15z17GsNhj8Ck-79" target="5QetswFkg2Cd5uMD2sd_-99">
          <mxGeometry relative="1" as="geometry" />
        </mxCell>
        <mxCell id="PLs2SsT15z17GsNhj8Ck-79" value="&lt;span style=&quot;color: rgb(0, 0, 0); font-size: 13px; font-style: normal; font-weight: 400; letter-spacing: normal; text-align: left; text-indent: 0px; text-transform: none; word-spacing: 0px; background-color: rgb(240, 242, 245); display: inline; float: none;&quot;&gt;delp сервер обработки данных&lt;/span&gt;" style="text;whiteSpace=wrap;html=1;" vertex="1" parent="WIyWlLk6GJQsqaUBKTNV-1">
          <mxGeometry x="355.45" y="733" width="100" height="10" as="geometry" />
        </mxCell>
        <mxCell id="PLs2SsT15z17GsNhj8Ck-80" value="&lt;span style=&quot;font-family: , &amp;#34;blinkmacsystemfont&amp;#34; , &amp;#34;roboto&amp;#34; , &amp;#34;helvetica neue&amp;#34; , &amp;#34;geneva&amp;#34; , &amp;#34;noto sans armenian&amp;#34; , &amp;#34;noto sans bengali&amp;#34; , &amp;#34;noto sans cherokee&amp;#34; , &amp;#34;noto sans devanagari&amp;#34; , &amp;#34;noto sans ethiopic&amp;#34; , &amp;#34;noto sans georgian&amp;#34; , &amp;#34;noto sans hebrew&amp;#34; , &amp;#34;noto sans kannada&amp;#34; , &amp;#34;noto sans khmer&amp;#34; , &amp;#34;noto sans lao&amp;#34; , &amp;#34;noto sans osmanya&amp;#34; , &amp;#34;noto sans tamil&amp;#34; , &amp;#34;noto sans telugu&amp;#34; , &amp;#34;noto sans thai&amp;#34; , sans-serif , &amp;#34;arial&amp;#34; , &amp;#34;tahoma&amp;#34; , &amp;#34;verdana&amp;#34; ; font-size: 13px ; background-color: rgb(240 , 242 , 245)&quot;&gt;DLP DB&lt;/span&gt;" style="text;whiteSpace=wrap;html=1;" vertex="1" parent="WIyWlLk6GJQsqaUBKTNV-1">
          <mxGeometry x="536.5" y="768.5" width="70" height="30" as="geometry" />
        </mxCell>
        <mxCell id="PLs2SsT15z17GsNhj8Ck-81" value="&lt;span style=&quot;color: rgb(0, 0, 0); font-size: 13px; font-style: normal; font-weight: 400; letter-spacing: normal; text-align: left; text-indent: 0px; text-transform: none; word-spacing: 0px; background-color: rgb(240, 242, 245); display: inline; float: none;&quot;&gt;DLP СЕРВЕР УПРАВЛЕНИЯ АГЕНТАМИ&lt;/span&gt;" style="text;whiteSpace=wrap;html=1;" vertex="1" parent="WIyWlLk6GJQsqaUBKTNV-1">
          <mxGeometry x="380" y="850" width="90" height="50" as="geometry" />
        </mxCell>
        <mxCell id="PLs2SsT15z17GsNhj8Ck-89" value="" style="rounded=0;orthogonalLoop=1;jettySize=auto;html=1;endArrow=classic;endFill=1;strokeColor=#1A1A1A;strokeWidth=4;" edge="1" parent="WIyWlLk6GJQsqaUBKTNV-1" source="PLs2SsT15z17GsNhj8Ck-73" target="PLs2SsT15z17GsNhj8Ck-79">
          <mxGeometry relative="1" as="geometry" />
        </mxCell>
        <mxCell id="PLs2SsT15z17GsNhj8Ck-91" value="" style="endArrow=classic;startArrow=classic;html=1;rounded=0;strokeColor=#1A1A1A;strokeWidth=4;exitX=0.5;exitY=1;exitDx=0;exitDy=0;" edge="1" parent="WIyWlLk6GJQsqaUBKTNV-1" source="PLs2SsT15z17GsNhj8Ck-79" target="PLs2SsT15z17GsNhj8Ck-73">
          <mxGeometry width="50" height="50" relative="1" as="geometry">
            <mxPoint x="400" y="630" as="sourcePoint" />
            <mxPoint x="760" y="570" as="targetPoint" />
          </mxGeometry>
        </mxCell>
        <mxCell id="PLs2SsT15z17GsNhj8Ck-96" value="" style="verticalLabelPosition=bottom;sketch=0;html=1;fillColor=#00CC00;strokeColor=none;verticalAlign=top;pointerEvents=1;align=center;shape=mxgraph.cisco_safe.security_icons.icon4;" vertex="1" parent="WIyWlLk6GJQsqaUBKTNV-1">
          <mxGeometry x="571.5" y="447.14" width="35" height="25.68" as="geometry" />
        </mxCell>
        <mxCell id="PLs2SsT15z17GsNhj8Ck-97" value="" style="verticalLabelPosition=bottom;sketch=0;html=1;fillColor=#00CC00;strokeColor=none;verticalAlign=top;pointerEvents=1;align=center;shape=mxgraph.cisco_safe.security_icons.icon4;" vertex="1" parent="WIyWlLk6GJQsqaUBKTNV-1">
          <mxGeometry x="355" y="434.32" width="35" height="25.68" as="geometry" />
        </mxCell>
        <mxCell id="PLs2SsT15z17GsNhj8Ck-98" value="" style="verticalLabelPosition=bottom;sketch=0;html=1;fillColor=#00CC00;strokeColor=none;verticalAlign=top;pointerEvents=1;align=center;shape=mxgraph.cisco_safe.security_icons.icon4;" vertex="1" parent="WIyWlLk6GJQsqaUBKTNV-1">
          <mxGeometry x="57" y="770.66" width="35" height="25.68" as="geometry" />
        </mxCell>
        <mxCell id="PLs2SsT15z17GsNhj8Ck-99" value="" style="verticalLabelPosition=bottom;sketch=0;html=1;fillColor=#00CC00;strokeColor=none;verticalAlign=top;pointerEvents=1;align=center;shape=mxgraph.cisco_safe.security_icons.icon4;" vertex="1" parent="WIyWlLk6GJQsqaUBKTNV-1">
          <mxGeometry x="57" y="577" width="35" height="25.68" as="geometry" />
        </mxCell>
      </root>
    </mxGraphModel>
  </diagram>
</mxfile>
